<?xml version="1.0" encoding="UTF-8" standalone="no"?>
<!-- Created with Inkscape (http://www.inkscape.org/) -->

<svg
   xmlns:dc="http://purl.org/dc/elements/1.1/"
   xmlns:cc="http://creativecommons.org/ns#"
   xmlns:rdf="http://www.w3.org/1999/02/22-rdf-syntax-ns#"
   xmlns:svg="http://www.w3.org/2000/svg"
   xmlns="http://www.w3.org/2000/svg"
   xmlns:sodipodi="http://sodipodi.sourceforge.net/DTD/sodipodi-0.dtd"
   xmlns:inkscape="http://www.inkscape.org/namespaces/inkscape"
   width="210mm"
   height="297mm"
   id="svg21464"
   version="1.1"
   inkscape:version="0.48+devel r9797"
   sodipodi:docname="simple_light_bulb.svg">
  <defs
     id="defs21466" />
  <sodipodi:namedview
     id="base"
     pagecolor="#ffffff"
     bordercolor="#666666"
     borderopacity="1.0"
     inkscape:pageopacity="0.0"
     inkscape:pageshadow="2"
     inkscape:zoom="0.35"
     inkscape:cx="350"
     inkscape:cy="520"
     inkscape:document-units="px"
     inkscape:current-layer="layer1"
     showgrid="false"
     inkscape:window-width="829"
     inkscape:window-height="729"
     inkscape:window-x="44"
     inkscape:window-y="58"
     inkscape:window-maximized="0" />
  <metadata
     id="metadata21469">
    <rdf:RDF>
      <cc:Work
         rdf:about="">
        <dc:format>image/svg+xml</dc:format>
        <dc:type
           rdf:resource="http://purl.org/dc/dcmitype/StillImage" />
        <dc:title></dc:title>
      </cc:Work>
    </rdf:RDF>
  </metadata>
  <g
     inkscape:label="Ebene 1"
     inkscape:groupmode="layer"
     id="layer1">
    <g
       id="g21481"
       transform="matrix(7.2945219,0,0,7.2945219,-2463.0143,-2618.6561)">
      <path
         sodipodi:nodetypes="zzcccccczz"
         inkscape:connector-curvature="0"
         id="path8190"
         d="m 388.60985,370.6305 c -19.80616,0 -38.16327,15.00546 -42.48324,29.88423 -4.31997,14.87878 0.36015,28.6424 10.44796,38.25796 3.75907,4.41708 10.05287,6.40205 12.599,11.83078 1.66809,6.49809 1.81072,13.28941 2.99611,19.89721 11.18317,0.005 22.01726,-0.0172 32.80351,0 1.1854,-6.6078 1.4048,-13.39912 3.0729,-19.89721 2.5462,-5.42873 8.7631,-7.4137 12.5222,-11.83078 10.0878,-9.61556 14.7679,-23.37918 10.448,-38.25796 -4.32,-14.87877 -22.6003,-29.88423 -42.40644,-29.88423 z"
         style="fill:#ffff00;fill-opacity:1;stroke:none;display:inline" />
      <path
         sodipodi:nodetypes="cccccccccccccccccccccccc"
         inkscape:connector-curvature="0"
         id="path3847-2-8"
         d="m 371.73839,468.56236 0,3.25 1.78125,0 0,5.4375 -1.78125,0 0,3.25 1.78125,0 0,5.4375 -1.78125,0 0,3.25 c 6.75374,0.0628 8.125,0.0937 8.125,0.0937 0,0 5.50303,4.76614 8.84375,4.8125 3.24843,0.0451 8.23795,-4.90625 8.62495,-4.90625 l 8.0626,0 0,-3.25 -1.75,0 0,-5.4375 1.75,0 0,-3.25 -1.75,0 0,-5.4375 1.75,0 0,-3.25 z"
         style="font-size:medium;font-style:normal;font-variant:normal;font-weight:normal;font-stretch:normal;text-indent:0;text-align:start;text-decoration:none;line-height:normal;letter-spacing:normal;word-spacing:normal;text-transform:none;direction:ltr;block-progression:tb;writing-mode:lr-tb;text-anchor:start;baseline-shift:baseline;color:#000000;fill:#000000;fill-opacity:1;fill-rule:nonzero;stroke:none;stroke-width:3.25789428;marker:none;visibility:visible;display:inline;overflow:visible;enable-background:accumulate;font-family:Sans;-inkscape-font-specification:Sans" />
    </g>
  </g>
</svg>
